<svg width="100" height="100" viewBox="0 0 100 100" fill="none" xmlns="http://www.w3.org/2000/svg">
<path d="M49.9991 41.8464C45.5044 41.8464 41.8446 45.5044 41.8446 49.9991C41.8446 54.4956 45.5044 58.1554 49.9991 58.1554C54.4956 58.1554 58.1536 54.4956 58.1536 49.9991C58.1536 45.5044 54.4956 41.8464 49.9991 41.8464ZM49.9991 41.8464C45.5044 41.8464 41.8446 45.5044 41.8446 49.9991C41.8446 54.4956 45.5044 58.1554 49.9991 58.1554C54.4956 58.1554 58.1536 54.4956 58.1536 49.9991C58.1536 45.5044 54.4956 41.8464 49.9991 41.8464ZM63.5839 28.5513H36.4161C32.0798 28.5513 28.5513 32.0798 28.5513 36.4161V63.5839C28.5513 67.9202 32.0798 71.4487 36.4161 71.4487H63.5839C67.9202 71.4487 71.4487 67.9202 71.4487 63.5839V36.4161C71.4487 32.0798 67.9202 28.5513 63.5839 28.5513ZM49.9991 64.1219C42.2135 64.1219 35.8781 57.7865 35.8781 49.9991C35.8781 42.2135 42.2135 35.8781 49.9991 35.8781C57.7865 35.8781 64.1219 42.2135 64.1219 49.9991C64.1219 57.7865 57.7865 64.1219 49.9991 64.1219ZM64.5753 38.7984C62.7328 38.7984 61.234 37.2996 61.234 35.4571C61.234 33.6146 62.7328 32.1157 64.5753 32.1157C66.4178 32.1157 67.9166 33.6146 67.9166 35.4571C67.9166 37.2996 66.4178 38.7984 64.5753 38.7984ZM49.9991 41.8464C45.5044 41.8464 41.8446 45.5044 41.8446 49.9991C41.8446 54.4956 45.5044 58.1554 49.9991 58.1554C54.4956 58.1554 58.1536 54.4956 58.1536 49.9991C58.1536 45.5044 54.4956 41.8464 49.9991 41.8464ZM63.5839 28.5513H36.4161C32.0798 28.5513 28.5513 32.0798 28.5513 36.4161V63.5839C28.5513 67.9202 32.0798 71.4487 36.4161 71.4487H63.5839C67.9202 71.4487 71.4487 67.9202 71.4487 63.5839V36.4161C71.4487 32.0798 67.9202 28.5513 63.5839 28.5513ZM49.9991 64.1219C42.2135 64.1219 35.8781 57.7865 35.8781 49.9991C35.8781 42.2135 42.2135 35.8781 49.9991 35.8781C57.7865 35.8781 64.1219 42.2135 64.1219 49.9991C64.1219 57.7865 57.7865 64.1219 49.9991 64.1219ZM64.5753 38.7984C62.7328 38.7984 61.234 37.2996 61.234 35.4571C61.234 33.6146 62.7328 32.1157 64.5753 32.1157C66.4178 32.1157 67.9166 33.6146 67.9166 35.4571C67.9166 37.2996 66.4178 38.7984 64.5753 38.7984ZM49.9991 41.8464C45.5044 41.8464 41.8446 45.5044 41.8446 49.9991C41.8446 54.4956 45.5044 58.1554 49.9991 58.1554C54.4956 58.1554 58.1536 54.4956 58.1536 49.9991C58.1536 45.5044 54.4956 41.8464 49.9991 41.8464ZM9 9V91H91V9H9ZM77.4152 63.5839C77.4152 71.2112 71.2112 77.4152 63.5839 77.4152H36.4161C28.7888 77.4152 22.5848 71.2112 22.5848 63.5839V36.4161C22.5848 28.7888 28.7888 22.5848 36.4161 22.5848H63.5839C71.2112 22.5848 77.4152 28.7888 77.4152 36.4161V63.5839ZM63.5839 28.5513H36.4161C32.0798 28.5513 28.5513 32.0798 28.5513 36.4161V63.5839C28.5513 67.9202 32.0798 71.4487 36.4161 71.4487H63.5839C67.9202 71.4487 71.4487 67.9202 71.4487 63.5839V36.4161C71.4487 32.0798 67.9202 28.5513 63.5839 28.5513ZM49.9991 64.1219C42.2135 64.1219 35.8781 57.7865 35.8781 49.9991C35.8781 42.2135 42.2135 35.8781 49.9991 35.8781C57.7865 35.8781 64.1219 42.2135 64.1219 49.9991C64.1219 57.7865 57.7865 64.1219 49.9991 64.1219ZM64.5753 38.7984C62.7328 38.7984 61.234 37.2996 61.234 35.4571C61.234 33.6146 62.7328 32.1157 64.5753 32.1157C66.4178 32.1157 67.9166 33.6146 67.9166 35.4571C67.9166 37.2996 66.4178 38.7984 64.5753 38.7984ZM49.9991 41.8464C45.5044 41.8464 41.8446 45.5044 41.8446 49.9991C41.8446 54.4956 45.5044 58.1554 49.9991 58.1554C54.4956 58.1554 58.1536 54.4956 58.1536 49.9991C58.1536 45.5044 54.4956 41.8464 49.9991 41.8464ZM49.9991 41.8464C45.5044 41.8464 41.8446 45.5044 41.8446 49.9991C41.8446 54.4956 45.5044 58.1554 49.9991 58.1554C54.4956 58.1554 58.1536 54.4956 58.1536 49.9991C58.1536 45.5044 54.4956 41.8464 49.9991 41.8464ZM49.9991 41.8464C45.5044 41.8464 41.8446 45.5044 41.8446 49.9991C41.8446 54.4956 45.5044 58.1554 49.9991 58.1554C54.4956 58.1554 58.1536 54.4956 58.1536 49.9991C58.1536 45.5044 54.4956 41.8464 49.9991 41.8464ZM63.5839 28.5513H36.4161C32.0798 28.5513 28.5513 32.0798 28.5513 36.4161V63.5839C28.5513 67.9202 32.0798 71.4487 36.4161 71.4487H63.5839C67.9202 71.4487 71.4487 67.9202 71.4487 63.5839V36.4161C71.4487 32.0798 67.9202 28.5513 63.5839 28.5513ZM49.9991 64.1219C42.2135 64.1219 35.8781 57.7865 35.8781 49.9991C35.8781 42.2135 42.2135 35.8781 49.9991 35.8781C57.7865 35.8781 64.1219 42.2135 64.1219 49.9991C64.1219 57.7865 57.7865 64.1219 49.9991 64.1219ZM64.5753 38.7984C62.7328 38.7984 61.234 37.2996 61.234 35.4571C61.234 33.6146 62.7328 32.1157 64.5753 32.1157C66.4178 32.1157 67.9166 33.6146 67.9166 35.4571C67.9166 37.2996 66.4178 38.7984 64.5753 38.7984ZM49.9991 41.8464C45.5044 41.8464 41.8446 45.5044 41.8446 49.9991C41.8446 54.4956 45.5044 58.1554 49.9991 58.1554C54.4956 58.1554 58.1536 54.4956 58.1536 49.9991C58.1536 45.5044 54.4956 41.8464 49.9991 41.8464ZM49.9991 41.8464C45.5044 41.8464 41.8446 45.5044 41.8446 49.9991C41.8446 54.4956 45.5044 58.1554 49.9991 58.1554C54.4956 58.1554 58.1536 54.4956 58.1536 49.9991C58.1536 45.5044 54.4956 41.8464 49.9991 41.8464ZM49.9991 41.8464C45.5044 41.8464 41.8446 45.5044 41.8446 49.9991C41.8446 54.4956 45.5044 58.1554 49.9991 58.1554C54.4956 58.1554 58.1536 54.4956 58.1536 49.9991C58.1536 45.5044 54.4956 41.8464 49.9991 41.8464ZM63.5839 28.5513H36.4161C32.0798 28.5513 28.5513 32.0798 28.5513 36.4161V63.5839C28.5513 67.9202 32.0798 71.4487 36.4161 71.4487H63.5839C67.9202 71.4487 71.4487 67.9202 71.4487 63.5839V36.4161C71.4487 32.0798 67.9202 28.5513 63.5839 28.5513ZM49.9991 64.1219C42.2135 64.1219 35.8781 57.7865 35.8781 49.9991C35.8781 42.2135 42.2135 35.8781 49.9991 35.8781C57.7865 35.8781 64.1219 42.2135 64.1219 49.9991C64.1219 57.7865 57.7865 64.1219 49.9991 64.1219ZM64.5753 38.7984C62.7328 38.7984 61.234 37.2996 61.234 35.4571C61.234 33.6146 62.7328 32.1157 64.5753 32.1157C66.4178 32.1157 67.9166 33.6146 67.9166 35.4571C67.9166 37.2996 66.4178 38.7984 64.5753 38.7984ZM49.9991 41.8464C45.5044 41.8464 41.8446 45.5044 41.8446 49.9991C41.8446 54.4956 45.5044 58.1554 49.9991 58.1554C54.4956 58.1554 58.1536 54.4956 58.1536 49.9991C58.1536 45.5044 54.4956 41.8464 49.9991 41.8464Z" fill="#F59F00"/>
<rect x="7" y="7" width="86" height="86" stroke="#F59F00" stroke-width="14"/>
</svg>
