<svg width="100" height="100" viewBox="0 0 100 100" fill="none" xmlns="http://www.w3.org/2000/svg">
<rect width="100" height="100" fill="#F59F00"/>
<path d="M50 16C31.7736 16 17 30.9985 17 49.5C17 68.0015 31.7749 83 50 83C68.2251 83 83 68.0015 83 49.5C83 30.9985 68.2251 16 50 16ZM50 79.5047C33.6765 79.5047 20.4425 66.0712 20.4425 49.5C20.4425 32.9288 33.6765 19.4953 50 19.4953C66.3235 19.4953 79.5549 32.9288 79.5549 49.5C79.5549 66.0712 66.3235 79.5047 50 79.5047V79.5047ZM63.6862 47.3395V44.6004C63.6771 41.3461 62.3786 38.2276 60.0741 35.9255C57.7697 33.6234 54.6465 32.3246 51.3863 32.3128H49.1819C45.9222 32.3253 42.7998 33.6244 40.4961 35.9264C38.1925 38.2285 36.8946 41.3467 36.8858 44.6004V47.3395L35.3655 50.1353V54.1681C35.3686 57.7934 36.8115 61.2695 39.3779 63.8346C41.9444 66.3997 45.425 67.8445 49.0569 67.8523H51.5138C55.1438 67.8391 58.621 66.3925 61.1859 63.8285C63.7508 61.2645 65.1948 57.7915 65.2026 54.1681V50.134L63.6862 47.3395ZM51.7225 59.7108V62.9386C51.7232 63.1742 51.6653 63.4064 51.554 63.6142C51.4427 63.822 51.2815 63.999 51.0848 64.1294L51.0758 64.1384L51.0668 64.1474H51.0577L51.0487 64.1564H51.0397L51.0294 64.1654L51.0204 64.1744H51.0114L50.9933 64.1834L50.9843 64.1924L50.9753 64.2014H50.9572L50.9482 64.2104H50.9392L50.9302 64.2194L50.9212 64.2284H50.9018L50.8838 64.2374H50.8722L50.8632 64.2464L50.8542 64.2554H50.8361L50.8271 64.2644H50.8104L50.8014 64.2734H50.7923L50.7833 64.2824H50.773L50.7627 64.2914H50.7563L50.7472 64.3004H50.7189L50.7099 64.3094H50.6918L50.6828 64.3184H50.6442L50.6352 64.3274H50.5978V64.3365H50.5695L50.5411 64.3455H50.5037C50.4327 64.361 50.3599 64.3671 50.2873 64.3635H50.2783C50.2313 64.3652 50.1842 64.3622 50.1379 64.3545C50.077 64.3546 50.0166 64.345 49.9588 64.3262H49.9497L49.9317 64.3172H49.9201L49.8918 64.3082L49.8544 64.2992H49.8364L49.8261 64.2902H49.817L49.7977 64.2812H49.7887C49.7682 64.2705 49.7472 64.261 49.7256 64.2529L49.6972 64.2439V64.2349H49.6779L49.6689 64.2259H49.6599L49.6509 64.2169L49.6315 64.2079H49.6225L49.6032 64.1988L49.5942 64.1898L49.5748 64.1808L49.5658 64.1718L49.5465 64.1628H49.5375V64.1603H49.5285L49.5104 64.1513C49.3085 64.0205 49.1426 63.8414 49.0279 63.6303C48.9131 63.4191 48.8531 63.1827 48.8534 62.9424V59.7108C48.0285 59.3745 47.3454 58.7642 46.9196 57.983C46.4938 57.2018 46.3514 56.2978 46.5166 55.4238C46.6818 54.5499 47.1444 53.7598 47.8261 53.1872C48.5078 52.6146 49.3668 52.2947 50.2577 52.2816H50.3324C51.2227 52.2961 52.0807 52.6171 52.7614 53.1902C53.442 53.7633 53.9035 54.5534 54.0679 55.4269C54.2322 56.3005 54.0894 57.2039 53.6635 57.9844C53.2375 58.765 52.5546 59.3748 51.7303 59.7108H51.7225ZM58.1991 47.4231H42.3755V44.594C42.3806 42.7939 43.0989 41.0689 44.3736 39.7956C45.6483 38.5222 47.3759 37.804 49.1793 37.7975H51.3863C53.1921 37.8012 54.9229 38.5189 56.2 39.7933C57.477 41.0678 58.1963 42.7953 58.2004 44.5978L58.1991 47.4231Z" fill="#212529"/>
</svg>
