<svg width="297" height="297" viewBox="0 0 297 297" fill="none" xmlns="http://www.w3.org/2000/svg">
<path d="M94.9549 51.9998H62.2695C56.6062 51.9998 51.9995 56.6064 51.9995 62.2697V94.9551C51.9995 100.618 56.6062 105.225 62.2695 105.225H94.9549C100.618 105.225 105.225 100.618 105.225 94.9551V62.2697C105.226 56.6064 100.618 51.9998 94.9549 51.9998Z" fill="#F59F00"/>
<path d="M164.843 51.9998H132.158C126.494 51.9998 121.888 56.6064 121.888 62.2697V94.9551C121.888 100.618 126.494 105.225 132.158 105.225H164.843C170.506 105.225 175.113 100.618 175.113 94.9551V62.2697C175.113 56.6064 170.506 51.9998 164.843 51.9998Z" fill="#F59F00"/>
<path d="M94.9549 121.887H62.2695C56.6062 121.887 51.9995 126.494 51.9995 132.157V164.842C51.9995 170.506 56.6062 175.112 62.2695 175.112H94.9549C100.618 175.112 105.225 170.506 105.225 164.842V132.157C105.226 126.494 100.618 121.887 94.9549 121.887Z" fill="#F59F00"/>
<path d="M164.843 121.887H132.158C126.494 121.887 121.888 126.494 121.888 132.157V164.842C121.888 170.506 126.494 175.112 132.158 175.112H164.843C170.506 175.112 175.113 170.506 175.113 164.842V132.157C175.113 126.494 170.506 121.887 164.843 121.887Z" fill="#F59F00"/>
<path d="M234.73 51.9998H202.044C196.381 51.9998 191.774 56.6064 191.774 62.2697V94.9551C191.774 100.618 196.381 105.225 202.044 105.225H234.73C240.393 105.225 245 100.618 245 94.9551V62.2697C245 56.6064 240.393 51.9998 234.73 51.9998Z" fill="#F59F00"/>
<path d="M234.73 121.887H202.044C196.381 121.887 191.774 126.494 191.774 132.157V164.842C191.774 170.506 196.381 175.112 202.044 175.112H234.73C240.393 175.112 245 170.506 245 164.842V132.157C245 126.494 240.393 121.887 234.73 121.887Z" fill="#F59F00"/>
<path d="M94.9549 191.774H62.2695C56.6062 191.774 51.9995 196.381 51.9995 202.045V234.73C51.9995 240.394 56.6062 245 62.2695 245H94.9549C100.618 245 105.225 240.394 105.225 234.73V202.045C105.226 196.381 100.618 191.774 94.9549 191.774Z" fill="#F59F00"/>
<path d="M164.843 191.774H132.158C126.494 191.774 121.888 196.381 121.888 202.044V234.73C121.888 240.393 126.494 245 132.158 245H164.843C170.506 245 175.113 240.393 175.113 234.73V202.044C175.113 196.381 170.506 191.774 164.843 191.774Z" fill="#F59F00"/>
<path d="M234.73 191.774H202.044C196.381 191.774 191.774 196.381 191.774 202.044V234.73C191.774 240.393 196.381 245 202.044 245H234.73C240.393 245 245 240.393 245 234.73V202.044C245 196.381 240.393 191.774 234.73 191.774Z" fill="#F59F00"/>
</svg>
