<svg width="51" height="50" viewBox="0 0 51 50" fill="none" xmlns="http://www.w3.org/2000/svg">
<path d="M17.6629 0.327637H2.86285C1.70484 0.327637 0.75 1.28248 0.75 2.44048V17.3422C0.75 18.5002 1.70484 19.455 2.86285 19.455H17.6629C18.8209 19.455 19.6742 18.5002 19.7758 17.4437V2.44048C19.7758 1.28248 18.8209 0.327637 17.6629 0.327637ZM15.5501 15.3309H4.87412V4.45175H15.5501V15.3309Z" fill="#63686F"/>
<path d="M28.5445 6.56481H48.3016C49.4596 6.56481 50.4145 5.60996 50.4145 4.45196C50.4145 3.29396 49.4596 2.33911 48.3016 2.33911H28.5445C27.3865 2.33911 26.4316 3.29396 26.4316 4.45196C26.4316 5.60996 27.3865 6.56481 28.5445 6.56481Z" fill="#63686F"/>
<path d="M48.3118 13.1162H28.5445C27.3865 13.1162 26.4316 14.0711 26.4316 15.2291C26.4316 16.3871 27.3865 17.3419 28.5445 17.3419H48.3016C49.4596 17.3419 50.4145 16.3871 50.4145 15.2291C50.4246 14.0711 49.4698 13.1162 48.3118 13.1162Z" fill="#63686F"/>
<path d="M17.6629 30.8726H2.86285C1.70484 30.8726 0.75 31.8274 0.75 32.9854V47.8871C0.75 49.0451 1.70484 49.9999 2.86285 49.9999H17.6629C18.8209 49.9999 19.6742 49.0451 19.7758 47.9887V32.9854C19.7758 31.8172 18.8209 30.8726 17.6629 30.8726ZM15.5501 45.8758H4.87412V34.9967H15.5501V45.8758Z" fill="#63686F"/>
<path d="M48.3118 32.8738H28.5445C27.3865 32.8738 26.4316 33.8286 26.4316 34.9866C26.4316 36.1446 27.3865 37.0995 28.5445 37.0995H48.3016C49.4596 37.0995 50.4145 36.1446 50.4145 34.9866C50.4246 33.8286 49.4698 32.8738 48.3118 32.8738Z" fill="#63686F"/>
<path d="M48.3118 43.6611H28.5445C27.3865 43.6611 26.4316 44.616 26.4316 45.774C26.4316 46.932 27.3865 47.8868 28.5445 47.8868H48.3016C49.4596 47.8868 50.4145 46.932 50.4145 45.774C50.4246 44.6058 49.4698 43.6611 48.3118 43.6611Z" fill="#63686F"/>
</svg>
