<svg width="49" height="49" viewBox="0 0 49 49" fill="none" xmlns="http://www.w3.org/2000/svg">
<path d="M24.5 24.5C27.7489 24.5 30.8647 23.2094 33.1621 20.9121C35.4594 18.6147 36.75 15.4989 36.75 12.25C36.75 9.0011 35.4594 5.88526 33.1621 3.58794C30.8647 1.29062 27.7489 0 24.5 0C21.2511 0 18.1353 1.29062 15.8379 3.58794C13.5406 5.88526 12.25 9.0011 12.25 12.25C12.25 15.4989 13.5406 18.6147 15.8379 20.9121C18.1353 23.2094 21.2511 24.5 24.5 24.5V24.5ZM32.6667 12.25C32.6667 14.4159 31.8063 16.4932 30.2747 18.0247C28.7432 19.5563 26.6659 20.4167 24.5 20.4167C22.3341 20.4167 20.2568 19.5563 18.7253 18.0247C17.1937 16.4932 16.3333 14.4159 16.3333 12.25C16.3333 10.0841 17.1937 8.00684 18.7253 6.47529C20.2568 4.94375 22.3341 4.08333 24.5 4.08333C26.6659 4.08333 28.7432 4.94375 30.2747 6.47529C31.8063 8.00684 32.6667 10.0841 32.6667 12.25V12.25ZM49 44.9167C49 49 44.9167 49 44.9167 49H4.08333C4.08333 49 0 49 0 44.9167C0 40.8333 4.08333 28.5833 24.5 28.5833C44.9167 28.5833 49 40.8333 49 44.9167ZM44.9167 44.9003C44.9126 43.8958 44.2878 40.8742 41.5193 38.1057C38.857 35.4433 33.8468 32.6667 24.5 32.6667C15.1492 32.6667 10.143 35.4433 7.48067 38.1057C4.71217 40.8742 4.0915 43.8958 4.08333 44.9003H44.9167Z" fill="#F59F00"/>
</svg>
