<?xml version="1.0" encoding="iso-8859-1"?>
<!-- Generator: Adobe Illustrator 19.0.0, SVG Export Plug-In . SVG Version: 6.00 Build 0)  -->
<svg version="1.1" id="Layer_1" xmlns="http://www.w3.org/2000/svg" xmlns:xlink="http://www.w3.org/1999/xlink" x="0px" y="0px"
	 viewBox="0 0 511.999 511.999" style="enable-background:new 0 0 511.999 511.999;" xml:space="preserve" fill="#3bc9db">
<g>
	<g>
		<path d="M465.526,0c-9.425,0-17.067,7.641-17.067,17.067v49.064l-47.023,22.841V17.067C401.437,7.641,393.795,0,384.37,0
			s-17.067,7.641-17.067,17.067v32.517h-29.939c-9.425,0-17.067,7.641-17.067,17.067s7.641,17.067,17.067,17.067h29.939v21.834
			l-71.546,34.753c-5.879,2.855-9.61,8.817-9.61,15.351v4.443c-19.512-5.572-40.363-5.684-60.299,0.001v-4.444
			c0-6.534-3.731-12.496-9.61-15.351l-71.546-34.752V83.719h29.939c9.425,0,17.067-7.641,17.067-17.067s-7.641-17.067-17.067-17.067
			h-29.939V17.067C144.694,7.641,137.052,0,127.627,0c-9.425,0-17.067,7.641-17.067,17.067v71.905L63.537,66.131V17.067
			C63.537,7.641,55.896,0,46.47,0S29.403,7.641,29.403,17.067v59.748c0,6.534,3.731,12.496,9.61,15.351l152.702,74.174v10.303
			c-10.289,7.418-19.329,16.641-26.614,27.375H98.636c-30.188,0-47.441,34.667-29.108,58.541
			c15.094,19.659,38.72,29.032,62.292,26.144l-12.163,35.219c-1.523,4.411-1.173,9.254,0.968,13.4L186.917,465.7
			c25.322,61.704,112.805,61.761,138.166,0.001l66.292-128.379c2.141-4.147,2.491-8.99,0.968-13.401l-12.162-35.217
			c23.523,2.88,47.166-6.448,62.29-26.143c18.307-23.841,1.116-58.542-29.108-58.542h-66.476
			c-7.255-10.671-16.282-19.907-26.604-27.353v-10.325l152.702-74.174c5.879-2.855,9.61-8.817,9.61-15.351V17.067
			C482.593,7.641,474.952,0,465.526,0z M146.495,246.202c-14.432,13.163-37.491,11.722-49.893-4.432
			c-1.109-1.445,0.093-3.619,2.034-3.619h50.64L146.495,246.202z M413.361,238.154v-0.001c1.927,0,3.153,2.16,2.034,3.62
			c-6.5,8.464-16.334,13.32-26.983,13.32c-8.491,0-16.679-3.206-22.911-8.89c-2.428-7.026-1.858-5.377-2.781-8.05H413.361z
			 M322.588,229.654c2.702,4.99,2.826,4.914,12.81,33.836c-0.014,0-0.027-0.002-0.042-0.002c-12.469,0-22.577,10.108-22.577,22.577
			c0,12.469,10.108,22.577,22.577,22.577c5.263,0,10.094-1.816,13.933-4.836c2.516,7.298,5.304,15.381,8.4,24.349
			c-73.385,142.117-68.323,138.441-84.625,145.967v-57.932l25.851-29.85c15.015-17.338,2.715-44.322-20.249-44.322h-45.338
			c-22.936,0-35.283,26.962-20.249,44.323l25.852,29.85v57.933c-16.162-7.461-11.996-5.32-84.626-145.971
			c3.156-9.14,5.992-17.359,8.546-24.771c3.92,3.279,8.965,5.259,14.475,5.259c12.469,0,22.577-10.108,22.577-22.577
			c0-12.469-10.108-22.577-22.577-22.577c-0.251,0-0.495,0.03-0.743,0.038c10.117-29.316,10.2-29.106,13.013-34.234
			c0,0,0.001-0.003,0.002-0.005C218.346,176.914,294.021,176.963,322.588,229.654z"/>
	</g>
</g>
<g>
</g>
<g>
</g>
<g>
</g>
<g>
</g>
<g>
</g>
<g>
</g>
<g>
</g>
<g>
</g>
<g>
</g>
<g>
</g>
<g>
</g>
<g>
</g>
<g>
</g>
<g>
</g>
<g>
</g>
</svg>
