<?xml version="1.0" encoding="iso-8859-1"?>
<!-- Generator: Adobe Illustrator 19.0.0, SVG Export Plug-In . SVG Version: 6.00 Build 0)  -->
<svg version="1.1" id="Layer_1" xmlns="http://www.w3.org/2000/svg" xmlns:xlink="http://www.w3.org/1999/xlink" x="0px" y="0px"
	 viewBox="0 0 512 512" style="enable-background:new 0 0 512 512;" xml:space="preserve" fill="#f1f3f5" >
<g>
	<g>
		<path d="M325.818,93.091c-26.764,0-51.2,6.982-69.818,19.782c-18.618-12.8-43.055-19.782-69.818-19.782
			c-6.982,0-11.636,4.655-11.636,11.636s4.655,11.636,11.636,11.636c24.436,0,47.709,8.145,61.673,19.782
			c2.327,2.327,4.655,3.491,8.145,3.491s5.818-1.164,8.145-3.491c13.964-12.8,37.236-19.782,61.673-19.782
			c6.982,0,11.636-4.655,11.636-11.636S332.8,93.091,325.818,93.091z"/>
	</g>
</g>
<g>
	<g>
		<path d="M302.546,314.182c-13.964,0-25.6-5.818-34.909-16.291v-24.436l30.255-19.782c4.655-2.327,5.818-8.145,4.655-12.8
			s-5.818-8.146-11.636-8.146h-69.818c-4.655,0-9.309,3.491-11.636,8.146c-1.164,4.655,0,10.473,4.655,12.8l30.255,19.782v24.436
			c-9.309,10.473-20.945,16.291-34.909,16.291c-6.982,0-11.636,4.655-11.636,11.636s4.655,11.636,11.636,11.636
			c17.455,0,33.745-6.982,46.545-17.455c12.8,11.636,29.091,17.455,46.545,17.455c6.982,0,11.636-4.655,11.636-11.636
			S309.527,314.182,302.546,314.182z"/>
	</g>
</g>
<g>
	<g>
		<circle cx="316.509" cy="186.182" r="23.273"/>
	</g>
</g>
<g>
	<g>
		<circle cx="200.145" cy="186.182" r="23.273"/>
	</g>
</g>
<g>
	<g>
		<path d="M386.327,8.145C372.364,3.491,354.909,0,338.618,0H173.382c-17.455,0-33.745,3.491-50.036,8.145
			c-5.818,2.327-8.145,9.309-5.818,15.127c1.164,5.818,8.145,9.309,13.964,6.982c13.964-4.655,27.927-6.982,41.891-6.982h164.073
			c13.964,0,27.927,2.327,41.891,6.982c1.164,0,2.327,1.164,3.491,1.164c4.655,0,9.309-3.491,10.473-8.145
			C395.636,17.455,392.145,10.473,386.327,8.145z"/>
	</g>
</g>
<g>
	<g>
		<path d="M512,93.091c0-32.582-25.6-58.182-58.182-58.182c-32.582,0-58.182,25.6-58.182,58.182c0,6.982,4.655,11.636,11.636,11.636
			c6.982,0,11.636-4.655,11.636-11.636c0-19.782,15.127-34.909,34.909-34.909c19.782,0,34.909,15.127,34.909,34.909
			c0,12.8-6.982,24.436-17.455,30.255c-4.655,2.327-6.982,9.309-4.655,13.964l2.327,5.818c5.818,13.964,8.146,29.091,8.146,44.218
			v8.145c-10.473-2.327-18.618-8.145-25.6-17.455c-3.491-4.655-11.636-5.818-16.291-2.327c-4.655,3.491-5.818,11.636-2.327,16.291
			c10.473,15.127,26.764,24.436,44.218,26.764c0,16.291-2.327,31.418-4.655,46.545c-12.8-1.164-24.436-8.145-32.582-17.455
			c-3.491-4.655-11.636-5.818-16.291-2.327c-4.655,3.491-5.818,11.636-2.327,16.291c10.473,15.127,26.764,24.436,44.218,26.764
			c-5.818,16.291-12.8,32.582-22.109,47.709h-1.164c-15.127,0-27.927-6.982-37.236-18.618c-3.491-4.655-11.636-5.818-16.291-2.327
			c-4.655,3.491-5.818,11.636-2.327,16.291c10.473,13.964,25.6,23.273,43.055,26.764c-4.655,5.818-9.309,10.473-13.964,16.291
			L396.8,395.636h-1.164c-15.127,0-27.927-6.982-37.236-18.618c-3.491-4.655-11.636-5.818-16.291-2.327s-5.818,11.636-2.327,16.291
			c9.309,12.8,22.109,20.945,37.236,25.6L345.6,450.327c-1.164,1.164-2.327,2.327-3.491,3.491h-4.655
			c-15.127,0-27.927-6.982-37.236-18.618c-3.491-4.655-11.636-5.818-16.291-2.327s-5.818,11.636-2.327,16.291
			c8.146,11.636,20.945,19.782,33.745,24.436c-18.618,9.309-38.4,15.127-59.345,15.127s-40.727-5.818-59.345-15.127
			c12.8-4.655,24.436-12.8,33.745-24.436c3.491-4.655,2.327-12.8-2.327-16.291c-4.655-3.491-12.8-2.327-16.291,2.327
			c-9.309,11.636-22.109,18.618-37.236,18.618h-3.491c-1.164-1.164-2.327-2.327-3.491-3.491l-31.418-33.745
			c15.127-3.491,27.927-12.8,37.236-25.6c3.491-4.655,2.327-12.8-2.327-16.291c-4.655-3.491-12.8-2.327-16.291,2.327
			c-9.309,11.636-22.109,18.618-37.236,18.618H115.2l-18.618-19.782c-4.655-4.655-9.309-10.473-13.964-16.291
			c17.455-3.491,32.582-12.8,43.055-26.764c3.491-4.655,2.327-12.8-2.327-16.291c-4.655-3.491-12.8-2.327-16.291,2.327
			c-9.309,11.636-22.109,18.618-37.236,18.618h-2.327c-9.309-15.127-16.291-31.418-22.109-47.709
			c17.455-2.327,33.745-12.8,44.218-26.764c3.491-4.655,2.327-12.8-2.327-16.291s-12.8-2.327-16.291,2.327
			C62.836,259.491,51.2,265.309,38.4,266.473c-3.491-15.127-4.655-31.418-4.655-46.545c17.455-3.491,33.745-12.8,44.218-26.764
			c3.491-4.655,2.327-12.8-2.327-16.291s-12.8-2.327-16.291,2.327c-6.982,8.145-15.127,13.964-25.6,17.455v-8.145
			c0-15.127,2.327-30.255,8.145-44.218l2.327-5.818c1.164-3.491,1.164-8.145-1.164-11.636c-1.164-1.164-2.327-2.327-4.655-3.491
			c-8.146-6.982-15.127-18.618-15.127-30.255c0-19.782,15.127-34.909,34.909-34.909s34.909,15.127,34.909,34.909
			c0,6.982,4.655,11.636,11.636,11.636s11.636-4.655,11.636-11.636c0-32.582-25.6-58.182-58.182-58.182
			C25.6,34.909,0,60.509,0,93.091c0,17.455,8.145,33.745,20.945,44.218c-5.818,16.291-9.309,33.745-9.309,50.036v31.418
			c0,64,24.436,125.673,68.655,172.218l69.818,74.473C178.036,494.546,216.436,512,256,512s79.127-16.291,105.891-46.545
			l69.818-74.473c44.218-46.545,68.655-108.218,68.655-172.218v-31.418c0-17.455-3.491-33.745-9.309-50.036
			C503.855,126.836,512,110.545,512,93.091z"/>
	</g>
</g>
<g>
	<g>
		<path d="M411.927,176.873l-4.654-39.564c-1.164-5.818-6.982-10.473-13.964-9.309c-5.818,1.164-10.473,6.982-9.309,13.964
			l6.982,39.564c2.327,17.455,0,34.909-8.145,50.036l-53.527,107.055C315.345,366.545,287.418,384,256,384
			s-59.345-17.455-73.309-45.382l-53.527-107.055c-8.145-16.291-10.473-32.582-8.145-50.036L128,141.964
			c1.164-5.818-3.491-12.8-9.309-13.964s-12.8,3.491-13.964,9.309l-6.982,39.564c-3.491,22.109,0,44.218,9.309,65.164
			l53.527,107.055c17.455,36.073,54.691,58.182,94.255,58.182s76.8-22.109,94.255-58.182l53.527-107.055
			C413.091,222.255,416.582,198.982,411.927,176.873z"/>
	</g>
</g>
<g>
</g>
<g>
</g>
<g>
</g>
<g>
</g>
<g>
</g>
<g>
</g>
<g>
</g>
<g>
</g>
<g>
</g>
<g>
</g>
<g>
</g>
<g>
</g>
<g>
</g>
<g>
</g>
<g>
</g>
</svg>
