<svg width="605" height="156" viewBox="0 0 605 156" fill="none" xmlns="http://www.w3.org/2000/svg">
<path d="M210.842 50.4545V60.3977H179.486V50.4545H210.842ZM187.227 37.3864H200.082V88.5938C200.082 90.322 200.343 91.6477 200.864 92.571C201.408 93.4706 202.118 94.0862 202.994 94.4176C203.87 94.7491 204.841 94.9148 205.906 94.9148C206.711 94.9148 207.445 94.8556 208.108 94.7372C208.795 94.6188 209.315 94.5123 209.67 94.4176L211.837 104.467C211.15 104.704 210.168 104.964 208.889 105.249C207.634 105.533 206.096 105.698 204.273 105.746C201.053 105.84 198.153 105.355 195.572 104.29C192.992 103.201 190.944 101.52 189.429 99.2472C187.938 96.9744 187.204 94.1335 187.227 90.7244V37.3864ZM245.155 106.065C239.686 106.065 234.963 104.929 230.986 102.656C227.033 100.36 223.99 97.1165 221.86 92.9261C219.729 88.7121 218.664 83.7524 218.664 78.0469C218.664 72.4361 219.729 67.5118 221.86 63.2741C224.014 59.0128 227.021 55.6984 230.88 53.331C234.739 50.9399 239.272 49.7443 244.48 49.7443C247.842 49.7443 251.015 50.2888 253.998 51.3778C257.004 52.4432 259.656 54.1004 261.952 56.3494C264.272 58.5985 266.095 61.4631 267.421 64.9432C268.747 68.3996 269.409 72.5189 269.409 77.3011V81.2429H224.701V72.5781H257.087C257.063 70.116 256.531 67.9261 255.489 66.0085C254.447 64.0672 252.991 62.5402 251.121 61.4276C249.275 60.3149 247.12 59.7585 244.658 59.7585C242.03 59.7585 239.722 60.3977 237.733 61.6761C235.745 62.9309 234.194 64.5881 233.081 66.6477C231.992 68.6837 231.436 70.9209 231.412 73.3594V80.9233C231.412 84.0956 231.992 86.8182 233.152 89.0909C234.312 91.34 235.934 93.0682 238.017 94.2756C240.101 95.4593 242.539 96.0511 245.333 96.0511C247.203 96.0511 248.896 95.7907 250.411 95.2699C251.926 94.7254 253.24 93.9323 254.353 92.8906C255.465 91.849 256.306 90.5587 256.874 89.0199L268.877 90.3693C268.119 93.5417 266.675 96.3116 264.544 98.679C262.437 101.023 259.739 102.846 256.448 104.148C253.157 105.426 249.393 106.065 245.155 106.065ZM323.396 64.8722L311.677 66.1506C311.345 64.9669 310.765 63.8542 309.937 62.8125C309.132 61.7708 308.043 60.9304 306.67 60.2912C305.297 59.652 303.616 59.3324 301.627 59.3324C298.952 59.3324 296.703 59.9124 294.88 61.0724C293.081 62.2325 292.193 63.7358 292.217 65.5824C292.193 67.1686 292.773 68.4588 293.957 69.4531C295.164 70.4474 297.153 71.2642 299.923 71.9034L309.227 73.892C314.388 75.0047 318.223 76.7685 320.732 79.1832C323.265 81.598 324.544 84.7585 324.567 88.6648C324.544 92.0975 323.538 95.1278 321.549 97.7557C319.584 100.36 316.85 102.396 313.346 103.864C309.842 105.331 305.817 106.065 301.272 106.065C294.596 106.065 289.222 104.669 285.15 101.875C281.078 99.0578 278.651 95.1397 277.87 90.1207L290.406 88.9134C290.974 91.3755 292.181 93.2339 294.028 94.4886C295.874 95.7434 298.277 96.3707 301.237 96.3707C304.29 96.3707 306.741 95.7434 308.587 94.4886C310.458 93.2339 311.393 91.6832 311.393 89.8366C311.393 88.2741 310.789 86.9839 309.582 85.9659C308.398 84.9479 306.551 84.1667 304.042 83.6222L294.738 81.669C289.506 80.58 285.635 78.7453 283.126 76.1648C280.616 73.5606 279.373 70.2699 279.397 66.2926C279.373 62.9309 280.285 60.0189 282.131 57.5568C284.002 55.071 286.594 53.1534 289.908 51.804C293.246 50.4309 297.094 49.7443 301.45 49.7443C307.842 49.7443 312.872 51.1056 316.542 53.8281C320.235 56.5507 322.52 60.232 323.396 64.8722ZM362.405 50.4545V60.3977H331.048V50.4545H362.405ZM338.79 37.3864H351.645V88.5938C351.645 90.322 351.905 91.6477 352.426 92.571C352.971 93.4706 353.681 94.0862 354.557 94.4176C355.433 94.7491 356.403 94.9148 357.469 94.9148C358.274 94.9148 359.008 94.8556 359.67 94.7372C360.357 94.6188 360.878 94.5123 361.233 94.4176L363.399 104.467C362.713 104.704 361.73 104.964 360.452 105.249C359.197 105.533 357.658 105.698 355.835 105.746C352.616 105.84 349.715 105.355 347.135 104.29C344.554 103.201 342.507 101.52 340.991 99.2472C339.5 96.9744 338.766 94.1335 338.79 90.7244V37.3864ZM374.896 105V50.4545H381.039V58.8352H381.501C382.59 56.089 384.484 53.8755 387.183 52.1946C389.905 50.4901 392.983 49.6378 396.416 49.6378C396.937 49.6378 397.517 49.6496 398.156 49.6733C398.795 49.697 399.328 49.7206 399.754 49.7443V56.1719C399.47 56.1245 398.973 56.0535 398.262 55.9588C397.552 55.8641 396.783 55.8168 395.954 55.8168C393.113 55.8168 390.58 56.4205 388.355 57.6278C386.153 58.8116 384.413 60.4569 383.135 62.5639C381.856 64.6709 381.217 67.0739 381.217 69.7727V105H374.896ZM430.081 106.136C425.369 106.136 421.203 104.941 417.581 102.55C413.982 100.159 411.165 96.8561 409.129 92.642C407.093 88.4044 406.075 83.5156 406.075 77.9759C406.075 72.3887 407.093 67.4763 409.129 63.2386C411.165 58.9773 413.982 55.6629 417.581 53.2955C421.203 50.9044 425.369 49.7088 430.081 49.7088C434.792 49.7088 438.947 50.9044 442.545 53.2955C446.144 55.6866 448.961 59.0009 450.997 63.2386C453.056 67.4763 454.086 72.3887 454.086 77.9759C454.086 83.5156 453.068 88.4044 451.032 92.642C448.996 96.8561 446.167 100.159 442.545 102.55C438.947 104.941 434.792 106.136 430.081 106.136ZM430.081 100.348C433.868 100.348 437.076 99.33 439.704 97.294C442.332 95.258 444.321 92.5473 445.67 89.1619C447.043 85.7765 447.73 82.0478 447.73 77.9759C447.73 73.9039 447.043 70.1634 445.67 66.7543C444.321 63.3452 442.332 60.6108 439.704 58.5511C437.076 56.4915 433.868 55.4616 430.081 55.4616C426.316 55.4616 423.109 56.4915 420.457 58.5511C417.829 60.6108 415.829 63.3452 414.456 66.7543C413.106 70.1634 412.431 73.9039 412.431 77.9759C412.431 82.0478 413.106 85.7765 414.456 89.1619C415.829 92.5473 417.829 95.258 420.457 97.294C423.085 99.33 426.293 100.348 430.081 100.348ZM489.163 106.136C484.451 106.136 480.285 104.941 476.663 102.55C473.064 100.159 470.247 96.8561 468.211 92.642C466.175 88.4044 465.157 83.5156 465.157 77.9759C465.157 72.3887 466.175 67.4763 468.211 63.2386C470.247 58.9773 473.064 55.6629 476.663 53.2955C480.285 50.9044 484.451 49.7088 489.163 49.7088C493.874 49.7088 498.029 50.9044 501.627 53.2955C505.226 55.6866 508.043 59.0009 510.079 63.2386C512.138 67.4763 513.168 72.3887 513.168 77.9759C513.168 83.5156 512.15 88.4044 510.114 92.642C508.078 96.8561 505.249 100.159 501.627 102.55C498.029 104.941 493.874 106.136 489.163 106.136ZM489.163 100.348C492.951 100.348 496.158 99.33 498.786 97.294C501.414 95.258 503.403 92.5473 504.752 89.1619C506.125 85.7765 506.812 82.0478 506.812 77.9759C506.812 73.9039 506.125 70.1634 504.752 66.7543C503.403 63.3452 501.414 60.6108 498.786 58.5511C496.158 56.4915 492.951 55.4616 489.163 55.4616C485.398 55.4616 482.191 56.4915 479.539 58.5511C476.911 60.6108 474.911 63.3452 473.538 66.7543C472.188 70.1634 471.513 73.9039 471.513 77.9759C471.513 82.0478 472.188 85.7765 473.538 89.1619C474.911 92.5473 476.911 95.258 479.539 97.294C482.167 99.33 485.375 100.348 489.163 100.348ZM527.044 105V50.4545H533.188V58.8352H533.756C534.845 56.018 536.656 53.8045 539.189 52.1946C541.746 50.5611 544.812 49.7443 548.387 49.7443C552.151 49.7443 555.24 50.6321 557.655 52.4077C560.094 54.1596 561.917 56.5743 563.124 59.652H563.586C564.817 56.6217 566.817 54.2187 569.587 52.4432C572.381 50.6439 575.766 49.7443 579.743 49.7443C584.81 49.7443 588.81 51.3423 591.746 54.5384C594.682 57.7107 596.15 62.3509 596.15 68.4588V105H589.828V68.4588C589.828 64.1501 588.728 60.9186 586.526 58.7642C584.324 56.6098 581.424 55.5327 577.826 55.5327C573.659 55.5327 570.451 56.8111 568.202 59.3679C565.953 61.9247 564.828 65.1681 564.828 69.098V105H558.365V67.8906C558.365 64.1974 557.336 61.2145 555.276 58.9418C553.216 56.669 550.316 55.5327 546.576 55.5327C544.066 55.5327 541.805 56.1482 539.793 57.3793C537.804 58.6103 536.23 60.3267 535.07 62.5284C533.934 64.7064 533.365 67.2159 533.365 70.0568V105H527.044Z" fill="#F59F00"/>
<path d="M41.9575 123.5L13 146.25V26C13 24.2761 13.6848 22.6228 14.9038 21.4038C16.1228 20.1848 17.7761 19.5 19.5 19.5H136.5C138.224 19.5 139.877 20.1848 141.096 21.4038C142.315 22.6228 143 24.2761 143 26V117C143 118.724 142.315 120.377 141.096 121.596C139.877 122.815 138.224 123.5 136.5 123.5H41.9575ZM73.4045 78.7865L57.317 62.699L48.126 71.8965L73.4045 97.175L110.175 60.4045L100.984 51.2135L73.4045 78.7865V78.7865Z" fill="#F59F00"/>
</svg>
