<svg width="330" height="330" viewBox="0 0 330 330" fill="none" xmlns="http://www.w3.org/2000/svg">
<path d="M165 330C228.411 330 280 278.411 280 215C280 185.229 268.627 158.064 250 137.621V85C250 38.131 211.869 0 165 0C118.131 0 80.001 38.131 80.001 85V137.619C61.373 158.064 50 185.229 50 215C50 278.411 101.589 330 165 330ZM180 219.986V240C180 248.284 173.284 255 165 255C156.716 255 150 248.284 150 240V219.986C143.932 215.421 140 208.162 140 200C140 186.215 151.215 175 165 175C178.785 175 190 186.215 190 200C190 208.162 186.068 215.421 180 219.986ZM110.001 85C110.001 54.673 134.674 30 165 30C195.327 30 220 54.673 220 85V114.029C203.652 105.088 184.91 100 165 100C145.091 100 126.349 105.088 110.001 114.028V85Z" fill="#1B1E22"/>
<path d="M251.5 138V49L213 67.5L219.5 113L251.5 138Z" fill="#F59F00"/>
</svg>
