<svg width="330" height="330" viewBox="0 0 330 330" fill="none" xmlns="http://www.w3.org/2000/svg">
<mask id="mask0_221_41" style="mask-type:alpha" maskUnits="userSpaceOnUse" x="49" y="0" width="230" height="330">
<path d="M164 330C227.411 330 279 278.411 279 215C279 185.229 267.627 158.064 249 137.621V85C249 38.131 210.869 0 164 0C117.131 0 79.001 38.131 79.001 85C79.001 131.869 79.001 137.619 79.001 137.619C60.373 158.064 49 185.229 49 215C49 278.411 100.589 330 164 330ZM179 219.986V240C179 248.284 172.284 255 164 255C155.716 255 149 248.284 149 240V219.986C142.932 215.421 139 208.162 139 200C139 186.215 150.215 175 164 175C177.785 175 189 186.215 189 200C189 208.162 185.068 215.421 179 219.986ZM109.001 85C109.001 54.673 133.674 30 164 30C194.327 30 219 54.673 219 85V114.029C202.652 105.088 183.91 100 164 100C144.091 100 125.349 105.088 109.001 114.028C109.001 114.028 109.001 115.327 109.001 85Z" fill="#F1F3F5"/>
</mask>
<g mask="url(#mask0_221_41)">
<rect x="40" y="139" width="272" height="208" fill="#D9D9D9"/>
<rect x="117" width="195" height="269" fill="#D9D9D9"/>
<rect x="54" y="159.218" width="125" height="41" transform="rotate(-39.9218 54 159.218)" fill="#D9D9D9"/>
<rect x="51" width="237" height="60" fill="#D9D9D9"/>
</g>
</svg>
