<svg width="100" height="100" viewBox="0 0 100 100" fill="none" xmlns="http://www.w3.org/2000/svg"
>
<rect width="100" height="100" fill="#404348"/>
<path d="M51.1948 23.0456C54.1394 23 57.0673 23.027 59.9917 23C60.1689 26.4442 61.4075 29.9525 63.9286 32.3876C66.4447 34.8834 70.0036 36.0258 73.4664 36.4122V45.4724C70.2213 45.3661 66.9611 44.6911 64.0164 43.2939C62.7339 42.7134 61.5391 41.9658 60.3697 41.2014C60.3545 47.7759 60.3967 54.3419 60.3275 60.8894C60.152 64.0349 59.1142 67.1653 57.2849 69.7573C54.3419 74.0722 49.2339 76.8852 43.9874 76.973C40.7694 77.1569 37.5547 76.2794 34.8125 74.6628C30.2681 71.9831 27.0703 67.0775 26.6045 61.8125C26.5505 60.6869 26.5319 59.5631 26.5775 58.4645C26.9825 54.1833 29.1003 50.0877 32.3876 47.3017C36.1136 44.0566 41.333 42.5109 46.22 43.4255C46.2656 46.7583 46.1323 50.0878 46.1323 53.4206C43.8997 52.6983 41.2908 52.9008 39.3401 54.2559C37.9158 55.1789 36.8341 56.5931 36.2705 58.1928C35.8048 59.3336 35.9381 60.6009 35.9651 61.8125C36.5 65.5048 40.0505 68.6081 43.8406 68.2722C46.3533 68.2452 48.7614 66.7873 50.0709 64.6526C50.4944 63.905 50.9686 63.1406 50.9939 62.2614C51.215 58.2367 51.1273 54.2289 51.1543 50.2042C51.1728 41.1339 51.1273 32.0889 51.1964 23.0473L51.1948 23.0456Z" fill="#212529"/>
</svg>
